<svg xmlns="http://www.w3.org/2000/svg" viewBox="0 0 240 240" fill="none">
  <g opacity="0.9">
    <path d="M40 180C70 150 95 95 88 48C120 78 138 130 118 188C96 210 62 204 40 180Z" fill="#8FA47A" fill-opacity="0.55"/>
    <path d="M88 48C102 72 118 118 108 168" stroke="#6B7E51" stroke-width="2" stroke-linecap="round" opacity="0.45"/>
    <path d="M120 200C150 160 188 120 210 70C198 118 168 158 132 196C124 202 118 204 120 200Z" fill="#C4B48A" fill-opacity="0.5"/>
    <path d="M70 210C95 185 125 155 155 145C130 175 100 200 72 218" fill="#A9BA9D" fill-opacity="0.65"/>
    <circle cx="92" cy="92" r="6" fill="#D8C9A0" fill-opacity="0.7"/>
    <circle cx="148" cy="168" r="4" fill="#E8DFC8" fill-opacity="0.8"/>
  </g>
</svg>
